<svg enable-background="new 0 0 58 58" version="1.1" viewBox="0 0 58 58" xml:space="preserve" xmlns="http://www.w3.org/2000/svg">
        <path d="m52.276 30.239c-1.164-1.164-3.057-1.162-4.221 0l-15.391 15.391-2.121 7.779-0.519 0.519c-0.388 0.388-0.389 1.014-6e-3 1.405l-5e-3 0.02 0.019-5e-3c0.194 0.191 0.446 0.288 0.699 0.288 0.256 0 0.512-0.098 0.707-0.293l0.52-0.52 7.778-2.121 15.39-15.391c1.164-1.164 1.164-3.058 0-4.222l-2.85-2.85zm-17.303 15.911 10.243-10.243 4.243 4.243-10.243 10.243-4.243-4.243zm-0.903 1.925 3.22 3.22-4.428 1.208 1.208-4.428zm19.641-12.179-2.839 2.839-4.243-4.242 2.839-2.839c0.385-0.385 1.01-0.384 1.394-1e-3l2.85 2.85c0.384 0.384 0.384 1.01-1e-3 1.393z"/>
  <path d="m21.569 15.935c0-3.071-2.498-5.569-5.569-5.569s-5.569 2.498-5.569 5.569c0 3.07 2.498 5.568 5.569 5.568s5.569-2.498 5.569-5.568zm-9.138 0c0-1.968 1.601-3.569 3.569-3.569s3.569 1.602 3.569 3.569-1.601 3.568-3.569 3.568-3.569-1.601-3.569-3.568z"/>
  <path d="m6.25 39.026c0.197 0.225 0.473 0.339 0.75 0.339 0.234 0 0.47-0.082 0.66-0.249l16.313-14.362 8.319 8.318c0.391 0.391 1.023 0.391 1.414 0s0.391-1.023 0-1.414l-2.825-2.824 9.191-10.065 8.262 7.344c0.414 0.368 1.045 0.33 1.412-0.083 0.367-0.412 0.33-1.045-0.083-1.411l-9-8c-0.41-0.365-1.035-0.333-1.403 0.073l-9.794 10.727-4.743-4.743c-0.374-0.373-0.972-0.391-1.368-0.044l-17.016 14.982c-0.414 0.365-0.455 0.997-0.089 1.412z"/>
  <path d="m57 2.365h-56c-0.552 0-1 0.447-1 1v44c0 0.553 0.448 1 1 1h26c0.552 0 1-0.447 1-1s-0.448-1-1-1h-25v-42h54v24c0 0.553 0.448 1 1 1s1-0.447 1-1v-25c0-0.552-0.448-1-1-1z"/>
      </svg>
