<svg width="24" height="24" viewBox="0 0 24 24" fill="none" xmlns="http://www.w3.org/2000/svg">
<g clip-path="url(#clip0_1146_93)">
<path d="M0 11.9975C0 12.3713 0.299065 12.6704 0.672897 12.6704H16.9271L13.443 16.1545C13.1788 16.4187 13.1788 16.8424 13.443 17.1065C13.5726 17.2361 13.747 17.3059 13.9165 17.3059C14.086 17.3059 14.2604 17.2411 14.39 17.1065L19.0255 12.471C19.2897 12.2069 19.2897 11.7832 19.0255 11.519L14.39 6.88349C14.1259 6.61932 13.7022 6.61932 13.438 6.88349C13.1738 7.14767 13.1738 7.57134 13.438 7.83552L16.9221 11.3196H0.672897C0.299065 11.3246 0 11.6237 0 11.9975Z" fill="#026C51"/>
<path d="M19.0604 0H4.93458C2.21308 0 0 2.21308 0 4.93458V7.83551C0 8.20935 0.299065 8.50841 0.672897 8.50841C1.04673 8.50841 1.34579 8.20935 1.34579 7.83551V4.93458C1.34579 2.95576 2.95576 1.34579 4.93458 1.34579H19.0654C21.0442 1.34579 22.6542 2.95576 22.6542 4.93458V19.0654C22.6542 21.0442 21.0442 22.6542 19.0654 22.6542H4.93458C2.95576 22.6542 1.34579 21.0442 1.34579 19.0654V16.1994C1.34579 15.8255 1.04673 15.5265 0.672897 15.5265C0.299065 15.5265 0 15.8255 0 16.1994V19.0654C0 21.7869 2.21308 24 4.93458 24H19.0654C21.7869 24 24 21.7869 24 19.0654V4.93458C23.995 2.21308 21.7819 0 19.0604 0Z" fill="#026C51"/>
</g>
<defs>
<clipPath id="clip0_1146_93">
<rect width="24" height="24" fill="white"/>
</clipPath>
</defs>
</svg>
