<svg enable-background="new 0 0 384.97 384.97" version="1.1" viewBox="0 0 384.97 384.97" xml:space="preserve" xmlns="http://www.w3.org/2000/svg">
        <path d="m192.48 96.242c26.575 0 48.121-21.546 48.121-48.121s-21.546-48.121-48.121-48.121-48.121 21.546-48.121 48.121 21.546 48.121 48.121 48.121zm0-72.181c13.293 0 24.061 10.779 24.061 24.061s-10.767 24.061-24.061 24.061-24.061-10.767-24.061-24.061 10.767-24.061 24.061-24.061z"/>
  <path d="m192.48 288.73c-26.575 0-48.121 21.546-48.121 48.121s21.546 48.121 48.121 48.121 48.121-21.546 48.121-48.121c0-26.574-21.546-48.121-48.121-48.121zm0 72.182c-13.293 0-24.061-10.767-24.061-24.061s10.767-24.061 24.061-24.061 24.061 10.779 24.061 24.061-10.768 24.061-24.061 24.061z"/>
  <path d="m192.48 144.36c-26.575 0-48.121 21.546-48.121 48.121s21.546 48.121 48.121 48.121 48.121-21.546 48.121-48.121-21.546-48.121-48.121-48.121zm0 72.181c-13.293 0-24.061-10.767-24.061-24.061s10.767-24.061 24.061-24.061 24.061 10.779 24.061 24.061c-1e-3 13.282-10.768 24.061-24.061 24.061z"/>
      </svg>
